<?xml version="1.0" encoding="utf-8"?>
<!-- Generator: Adobe Illustrator 27.3.1, SVG Export Plug-In . SVG Version: 6.00 Build 0)  -->
<svg version="1.1" xmlns="http://www.w3.org/2000/svg" xmlns:xlink="http://www.w3.org/1999/xlink" x="0px" y="0px"
	 viewBox="0 0 595.28 841.89" style="enable-background:new 0 0 595.28 841.89;" xml:space="preserve">
<style type="text/css">
	.st0{fill:#A77D52;}
	.st1{fill:#CE4E57;}
	.st2{fill:#8D6643;}
	.st3{opacity:0.65;fill:#B64750;}
	.st4{opacity:0.15;fill:#FFFFFF;}
	.st5{opacity:0.25;fill:#FFFFFF;}
	.st6{opacity:0.65;fill:none;stroke:#00AEEF;stroke-miterlimit:10;}
</style>
<g id="Layer_1">
	<g>
		<g>
			<path class="st0" d="M306.03,443.02l0,103.02c0,10.98-8.89,19.87-19.87,19.87c-10.97,0-19.87-8.89-19.87-19.87l0-103.02H306.03z"
				/>
		</g>
		<path class="st1" d="M368.45,291.62l0,134.77c0,8.22-5.97,15.06-13.82,16.39v14.6c0,6.1-4.95,11.05-11.05,11.05
			c-6.1,0-11.05-4.95-11.05-11.05v-14.36l-72.5,0v12.96c0,9.54-7.74,17.28-17.28,17.28c-9.54,0-17.28-7.74-17.28-17.28v-12.96h-4.97
			c-9.18,0-16.63-7.45-16.63-16.63l0-134.77c0-45.45,36.84-82.29,82.29-82.29c22.72,0,43.29,9.21,58.18,24.1
			C359.24,248.33,368.45,268.9,368.45,291.62z"/>
		<g>
			<path class="st2" d="M278.9,443.02c0.57,2.08,1.24,4.22,1.98,6.43c1.75,5.18,3.81,10.38,5.8,15.4
				c4.09,10.32,8.32,20.99,10.12,32.14c3.11,19.3-1.33,39.68-12.2,55.92c-0.13,0.19-0.33,0.29-0.54,0.29
				c-0.13,0-0.25-0.04-0.36-0.11c-0.3-0.2-0.38-0.6-0.18-0.9c10.69-15.97,15.06-36.02,12-54.99c-1.78-11.01-5.98-21.61-10.04-31.87
				c-2-5.04-4.06-10.25-5.82-15.46c-0.79-2.35-1.5-4.63-2.1-6.84H278.9z"/>
		</g>
		<path class="st3" d="M259.73,422.5L259.73,422.5c-10.03,0-18.16-8.13-18.16-18.16l0-133.01c0-10.03,8.13-18.16,18.16-18.16h0
			c10.03,0,18.16,8.13,18.16,18.16l0,133.01C277.89,414.37,269.76,422.5,259.73,422.5z"/>
		<path class="st3" d="M315.78,422.5L315.78,422.5c-10.03,0-18.16-8.13-18.16-18.16l0-133.01c0-10.03,8.13-18.16,18.16-18.16h0
			c10.03,0,18.16,8.13,18.16,18.16l0,133.01C333.93,414.37,325.81,422.5,315.78,422.5z"/>
		<g>
			<path class="st2" d="M276.75,547.4c-0.1,0-0.2-0.02-0.3-0.07c-0.32-0.17-0.44-0.56-0.27-0.87c4.48-8.57,6.18-18.57,4.77-28.14
				c-1.4-9.57-5.9-18.66-12.65-25.59c-0.25-0.26-0.24-0.67,0.01-0.92c0.26-0.25,0.67-0.24,0.92,0.01
				c6.95,7.12,11.56,16.46,13.01,26.31c1.44,9.84-0.3,20.12-4.91,28.93C277.21,547.28,276.99,547.4,276.75,547.4z"/>
		</g>
		<path class="st4" d="M291.73,248.36l-52.24,30.16c-5.7,3.29-13,1.34-16.29-4.37l0,0c-3.29-5.7-1.34-13,4.37-16.29l52.24-30.16
			c5.7-3.29,13-1.34,16.29,4.37l0,0C299.39,237.77,297.44,245.06,291.73,248.36z"/>
		<ellipse transform="matrix(0.866 -0.5 0.5 0.866 -91.3155 163.6458)" class="st5" cx="259.71" cy="252.22" rx="34.48" ry="5.69"/>
		<circle class="st3" cx="240.93" cy="459.87" r="9.29"/>
	</g>
</g>
<g id="cutline">
	<path class="st6" d="M351.42,226.37c-17.43-17.43-40.6-27.03-65.26-27.03c-50.89,0-92.29,41.4-92.29,92.29l0,134.77
		c0,12.96,9.31,23.79,21.6,26.15v3.44c0,15.04,12.24,27.28,27.28,27.28c4.93,0,9.55-1.32,13.54-3.61v66.4
		c0,16.47,13.4,29.87,29.87,29.87s29.87-13.4,29.87-29.87v-93.02h6.5v4.36c0,11.61,9.44,21.05,21.05,21.05s21.05-9.44,21.05-21.05
		v-7.62c8.34-4.55,13.82-13.38,13.82-23.37V291.62C378.45,266.97,368.85,243.79,351.42,226.37z"/>
</g>
</svg>
