<?xml version="1.0" encoding="utf-8"?>
<!-- Generator: Adobe Illustrator 27.3.1, SVG Export Plug-In . SVG Version: 6.00 Build 0)  -->
<svg version="1.1" id="Layer_1" xmlns="http://www.w3.org/2000/svg" xmlns:xlink="http://www.w3.org/1999/xlink" x="0px" y="0px"
	 viewBox="0 0 612 792" style="enable-background:new 0 0 612 792;" xml:space="preserve">
<style type="text/css">
	.st0{fill:none;stroke:#000000;stroke-width:4;stroke-linecap:round;stroke-linejoin:round;stroke-miterlimit:10;}
	.st1{fill:none;stroke:#000000;stroke-width:2;stroke-linecap:round;stroke-linejoin:round;stroke-miterlimit:10;}
	.st2{fill:#FFFFFF;stroke:#BE1E2D;stroke-width:4;stroke-linecap:round;stroke-linejoin:round;stroke-miterlimit:10;}
	.st3{fill:#FFFFFF;stroke:#BE1E2D;stroke-width:4;stroke-miterlimit:10;}
	.st4{fill:none;stroke:#BE1E2D;stroke-width:4;stroke-linecap:round;stroke-linejoin:round;stroke-miterlimit:10;}
</style>
<path class="st0" d="M374.69,180.95"/>
<path class="st1" d="M453.97,221.5"/>
<path class="st2" d="M397.66,234.35l-32.34,18.6l-4.42,30c-0.72,4.89-5.26,8.26-10.14,7.54c-4.89-0.72-8.26-5.26-7.54-10.15
	l2.36-16.04L325,276.14l-1.93,13.11c-0.49,3.34-3.6,5.66-6.95,5.16c-3.35-0.49-5.67-3.6-5.17-6.95l-1.15,7.83
	c-0.72,4.89-5.26,8.26-10.15,7.54c-4.07-0.6-7.08-3.85-7.56-7.76l-12.67,7.29c-2.45,1.41-5.39-0.8-4.72-3.56l32.67-132.43
	c0.55-2.23,3.21-3.18,5.05-1.79l85.58,64.43C399.83,230.39,399.64,233.2,397.66,234.35z"/>
<circle class="st3" cx="312.06" cy="220.37" r="10.98"/>
<circle class="st3" cx="334.93" cy="250.33" r="9.36"/>
<circle class="st3" cx="299.82" cy="269.04" r="9.36"/>
<path class="st4" d="M302.01,188.06c3.89,2.51,8.56,3.45,13.04,4.65c4.47,1.19,9.09,2.84,12.16,6.3c3.15,3.56,4.3,8.62,7.71,11.92
	c5.96,5.78,16.7,4.32,22.17,10.55c2.54,2.89,3.39,6.9,5.67,9.99c2.39,3.22,6.12,5.17,9.83,6.71c3.45,1.44,7.05,2.67,10.14,4.74"/>
</svg>
